<?xml version="1.0" standalone="no"?><!DOCTYPE svg PUBLIC "-//W3C//DTD SVG 1.1//EN" "http://www.w3.org/Graphics/SVG/1.1/DTD/svg11.dtd"><svg t="1517368086962" class="icon" style="" viewBox="0 0 1024 1024" version="1.1" xmlns="http://www.w3.org/2000/svg" p-id="3381" xmlns:xlink="http://www.w3.org/1999/xlink" width="48" height="48"><defs><style type="text/css"></style></defs><path d="M934.625972 772.390495l-66.949808-130.025379C814.153156 797.841144 670.155555 903.623375 505.826905 903.623375c-174.766372 0-327.506079-120.400161-371.418194-292.809859l27.833929-7.085372c40.686654 159.656233 181.963285 271.148513 343.584266 271.148513 153.86125 0 288.48946-100.409874 336.555176-247.354598l-137.110751 51.179636-10.044774-26.907836 175.818331-65.659419 89.115644 173.096337L934.625972 772.390495zM89.766978 234.477312l-25.927509 12.339026 81.259722 170.634262 176.954201-48.850591-7.631818-27.694759-139.03252 38.356586c53.03182-138.688689 182.650947-230.154867 330.437851-230.154867 156.344814 0 292.572452 102.429881 339.010087 254.889201l27.497261-8.361435c-50.155307-164.636664-197.436698-275.259134-366.507348-275.259134-157.678182 0-296.178583 96.150874-354.877473 242.543012L89.766978 234.477312z" p-id="3382" fill="#8a8a8a"></path></svg>